<?xml version="1.0" standalone="no"?><svg xmlns="http://www.w3.org/2000/svg" viewBox="0 0 1440 320"><path fill="#0b1523" fill-opacity="1" d="M0,64L12.6,64C25.3,64,51,64,76,101.3C101.1,139,126,213,152,229.3C176.8,245,202,203,227,197.3C252.6,192,278,224,303,234.7C328.4,245,354,235,379,192C404.2,149,429,75,455,74.7C480,75,505,149,531,192C555.8,235,581,245,606,229.3C631.6,213,657,171,682,128C707.4,85,733,43,758,64C783.2,85,808,171,834,213.3C858.9,256,884,256,909,229.3C934.7,203,960,149,985,128C1010.5,107,1036,117,1061,106.7C1086.3,96,1112,64,1137,58.7C1162.1,53,1187,75,1213,112C1237.9,149,1263,203,1288,208C1313.7,213,1339,171,1364,138.7C1389.5,107,1415,85,1427,74.7L1440,64L1440,320L1427.4,320C1414.7,320,1389,320,1364,320C1338.9,320,1314,320,1288,320C1263.2,320,1238,320,1213,320C1187.4,320,1162,320,1137,320C1111.6,320,1086,320,1061,320C1035.8,320,1011,320,985,320C960,320,935,320,909,320C884.2,320,859,320,834,320C808.4,320,783,320,758,320C732.6,320,707,320,682,320C656.8,320,632,320,606,320C581.1,320,556,320,531,320C505.3,320,480,320,455,320C429.5,320,404,320,379,320C353.7,320,328,320,303,320C277.9,320,253,320,227,320C202.1,320,177,320,152,320C126.3,320,101,320,76,320C50.5,320,25,320,13,320L0,320Z"></path></svg>